<?xml version="1.0" encoding="utf-8"?>
<!-- Generator: Adobe Illustrator 22.1.0, SVG Export Plug-In . SVG Version: 6.00 Build 0)  -->
<svg version="1.1" id="Layer_1" xmlns="http://www.w3.org/2000/svg" xmlns:xlink="http://www.w3.org/1999/xlink" x="0px" y="0px"
	 viewBox="0 0 853.9 315.1" style="enable-background:new 0 0 853.9 315.1;" xml:space="preserve">
<style type="text/css">
	.st0{opacity:0.1;}
	.st1{fill:#FFFFFF;}
	.st2{opacity:0.15;}
	.st3{fill:#2E4856;}
	.st4{fill:#F6F6F6;}
	.st5{fill:#FE533D;}
	.st6{fill:#D1D2D3;}
	.st7{opacity:0.3;fill:#D1D2D3;}
	.st8{fill:#8EAFC2;}
	.st9{fill:#FFC273;}
	.st10{fill:#ED7F4C;}
	.st11{fill:#101628;}
	.st12{fill:#B4C4CC;}
	.st13{opacity:0.8;}
	.st14{opacity:0.4;fill:#FFFFFF;}
	.st15{opacity:0.7;fill:#FFFFFF;}
	.st16{fill:#223D4D;}
	.st17{opacity:0.8;fill:#FE533D;}
	.st18{opacity:0.2;}
	.st19{opacity:0.2;fill:#8EAFC2;}
	.st20{opacity:0.4;fill:#8EAFC2;}
	.st21{opacity:0.7;fill:#8EAFC2;}
</style>
<g class="st0">
	<polygon class="st1" points="391.5,29.5 505.5,219.9 282.4,218.8 378.9,17.1 312.1,3.3 293.2,54.8 295.1,55.5 313.4,5.7 376,18.6 
		279.2,220.8 509,221.9 393.2,28.5 	"/>
</g>
<g class="st2">
	<polygon class="st1" points="409,146.3 483.7,278.2 366.4,278.8 273.4,226 235.5,257.7 236.8,259.3 273.6,228.4 365.6,280.7 
		365.8,280.8 487.1,280.2 410.8,145.3 	"/>
</g>
<g>
	<path class="st3" d="M848.6,77.5H733.5c-2.9,0-5.3,2.4-5.3,5.3v160c0,2.9,2.4,5.3,5.3,5.3h115.1c2.9,0,5.3-2.4,5.3-5.3v-160
		C853.9,79.9,851.6,77.5,848.6,77.5z"/>
	<rect x="738.4" y="93.1" class="st4" width="105.4" height="139.4"/>
	<rect x="738.3" y="93.1" class="st5" width="34.9" height="139.4"/>
</g>
<g>
	<g>
		<rect x="123.6" y="157.9" class="st6" width="222.9" height="4"/>
	</g>
</g>
<g>
	<g>
		<rect x="424.7" y="157.9" class="st6" width="313.5" height="4"/>
	</g>
</g>
<g>
	<path class="st7" d="M309.1,291.7l-20-57.5c-0.6,0.3-1.2,0.5-1.9,0.7l20.5,58.9l66.8-8.1l-0.2-2L309.1,291.7z"/>
	<path class="st6" d="M398.8,166.9l-0.2-0.1l-11,0.4l-0.1-8.6l31.5-8.9l59.6-72l-87.9-46.8l-99.8,39.5l61.8,75.1l1.5-1.3l-60.1-73
		l96.4-38.1l85,45.2L417.8,148l-32.4,9.1l0.2,10.2l-14.4,0.5L294.9,216c0.3,0.6,0.5,1.3,0.7,1.9l76.1-48.1l13.9-0.5l1.8,116.1
		l136.3-60.5L398.8,166.9z M387.6,169.2l10.6-0.4l120.7,56l-129.5,57.5L387.6,169.2z"/>
</g>
<g>
	<g>
		
			<rect x="325.8" y="90.4" transform="matrix(6.352738e-02 -0.998 0.998 6.352738e-02 272.4747 473.2003)" class="st6" width="125.1" height="2"/>
	</g>
</g>
<path class="st8" d="M309.6,287.3c-2.5,0-4.5,2-4.5,4.5c0,2.5,2,4.5,4.5,4.5c2.5,0,4.5-2,4.5-4.5
	C314.1,289.3,312.1,287.3,309.6,287.3z"/>
<path class="st8" d="M485.4,274.7c-2.5,0-4.5,2-4.5,4.5c0,2.5,2,4.5,4.5,4.5c2.5,0,4.5-2,4.5-4.5
	C489.9,276.7,487.8,274.7,485.4,274.7z"/>
<ellipse class="st8" cx="445.9" cy="116.3" rx="4.5" ry="4.5"/>
<path class="st8" d="M312.1,0c-2.5,0-4.5,2-4.5,4.5s2,4.5,4.5,4.5c2.5,0,4.5-2,4.5-4.5S314.6,0,312.1,0z"/>
<ellipse class="st8" cx="236.2" cy="258.5" rx="4.5" ry="4.5"/>
<g class="st2">
	<rect x="463.6" y="2.7" transform="matrix(0.9405 -0.3397 0.3397 0.9405 13.4749 160.3098)" class="st1" width="2" height="78"/>
</g>
<g class="st2">
	<polygon class="st1" points="479.1,76.3 330.5,115.5 331,117.5 477.5,78.7 504.4,224.1 506.3,223.7 479.3,77.3 	"/>
</g>
<g>
	<path class="st6" d="M150.5,144.7c-0.8-0.8-2-0.2-2,0.8v27.7c0,1.1,1.3,1.6,2,0.8l13.8-13.8c0.5-0.5,0.5-1.2,0-1.7L150.5,144.7z"/>
</g>
<g>
	<g>
		<path class="st6" d="M490.3,144.7c-0.8-0.8-2-0.2-2,0.8v27.7c0,1.1,1.3,1.6,2,0.8l13.8-13.8c0.5-0.5,0.5-1.2,0-1.7L490.3,144.7z"
			/>
	</g>
</g>
<g>
	<path class="st1" d="M763.6,143.2c-0.8-0.8-2-0.2-2,0.8v27.7c0,1.1,1.3,1.6,2,0.8l13.8-13.8c0.5-0.5,0.5-1.2,0-1.7L763.6,143.2z"/>
</g>
<rect x="710.6" y="146.3" class="st1" width="51.8" height="23"/>
<g>
	<g>
		<path class="st6" d="M269,271.8c0,9.6-7.8,17.5-17.5,17.5h-25c-9.6,0-17.5-7.9-17.5-17.5v-219c0-11.3-9.2-20.5-20.5-20.5
			c-11.3,0-20.5,9.2-20.5,20.5v69.5c0,6.6-5.4,12-12,12h-40.5v3H156c8.3,0,15-6.7,15-15V52.8c0-9.6,7.8-17.5,17.5-17.5
			c9.6,0,17.5,7.9,17.5,17.5v219c0,11.3,9.2,20.5,20.5,20.5h25c11.3,0,20.5-9.2,20.5-20.5v-36h-3V271.8z"/>
	</g>
</g>
<g>
	<g>
		<ellipse class="st9" cx="810.7" cy="158.9" rx="31.1" ry="31.2"/>
		
			<ellipse transform="matrix(1 -1.957353e-03 1.957353e-03 1 -0.3096 1.5871)" class="st10" cx="810.7" cy="158.9" rx="24.3" ry="24.3"/>
	</g>
</g>
<path class="st11" d="M415.4,11.4h-46.1c-1.5,0-2.7,1.2-2.7,2.7v29.7c0,1.5,1.2,2.7,2.7,2.7h46.1c1.5,0,2.7-1.2,2.7-2.7V14.1
	C418.1,12.6,416.9,11.4,415.4,11.4z"/>
<rect x="370.7" y="16.5" class="st12" width="43.3" height="23.5"/>
<polygon class="st11" points="387.9,46.6 386.9,56 397.8,56 396.8,46.6 "/>
<g>
	<g>
		<path class="st11" d="M400.4,55h-16.5c-0.7,0-1.3,0.6-1.3,1.3c0,0.7,0.6,1.3,1.3,1.3h16.5c0.7,0,1.3-0.6,1.3-1.3
			C401.7,55.6,401.2,55,400.4,55z"/>
	</g>
</g>
<g>
	<g>
		<path class="st1" d="M400.4,22.1l-9.9,9.9l-6.1-6.1c-0.5-0.5-1.2-0.5-1.7,0c-0.5,0.5-0.5,1.2,0,1.7l7,7c0.2,0.2,0.5,0.4,0.9,0.4
			s0.6-0.1,0.9-0.4l10.7-10.7c0.5-0.5,0.5-1.2,0-1.7C401.6,21.6,400.9,21.6,400.4,22.1z"/>
	</g>
</g>
<path class="st11" d="M500.2,56.6h-46.1c-1.5,0-2.7,1.2-2.7,2.7V89c0,1.5,1.2,2.7,2.7,2.7h46.1c1.5,0,2.7-1.2,2.7-2.7V59.3
	C502.9,57.8,501.7,56.6,500.2,56.6z"/>
<rect x="455.5" y="61.7" class="st12" width="43.3" height="23.5"/>
<polygon class="st11" points="472.7,91.8 471.7,101.1 482.6,101.1 481.6,91.8 "/>
<g>
	<g>
		<path class="st11" d="M485.2,100.2h-16.5c-0.7,0-1.3,0.6-1.3,1.3c0,0.7,0.6,1.3,1.3,1.3h16.5c0.7,0,1.3-0.6,1.3-1.3
			C486.5,100.8,486,100.2,485.2,100.2z"/>
	</g>
</g>
<g>
	<g>
		<path class="st1" d="M485.2,67.3l-9.9,9.9l-6.1-6.1c-0.5-0.5-1.2-0.5-1.7,0c-0.5,0.5-0.5,1.2,0,1.7l7,7c0.2,0.2,0.5,0.4,0.9,0.4
			c0.3,0,0.6-0.1,0.9-0.4L486.9,69c0.5-0.5,0.5-1.2,0-1.7C486.4,66.8,485.7,66.8,485.2,67.3z"/>
	</g>
</g>
<path class="st11" d="M405.4,268.9h-46.1c-1.5,0-2.7,1.2-2.7,2.7v29.7c0,1.5,1.2,2.7,2.7,2.7h46.1c1.5,0,2.7-1.2,2.7-2.7v-29.7
	C408.1,270.2,406.9,268.9,405.4,268.9z"/>
<rect x="360.7" y="274.1" class="st12" width="43.3" height="23.5"/>
<polygon class="st11" points="377.9,304.1 376.9,313.5 387.8,313.5 386.8,304.1 "/>
<g>
	<g>
		<path class="st11" d="M390.4,312.5h-16.5c-0.7,0-1.3,0.6-1.3,1.3c0,0.7,0.6,1.3,1.3,1.3h16.5c0.7,0,1.3-0.6,1.3-1.3
			C391.8,313.1,391.2,312.5,390.4,312.5z"/>
	</g>
</g>
<g>
	<g>
		<path class="st1" d="M390.4,279.1l-9.9,9.9l-6.1-6.1c-0.5-0.5-1.2-0.5-1.7,0c-0.5,0.5-0.5,1.2,0,1.7l7,7c0.2,0.2,0.5,0.4,0.9,0.4
			s0.6-0.1,0.9-0.4l10.7-10.7c0.5-0.5,0.5-1.2,0-1.7C391.7,278.6,390.9,278.6,390.4,279.1z"/>
	</g>
</g>
<path class="st11" d="M313.5,47.4h-38.4c-1.5,0-2.7,1.2-2.7,2.7v26.8h43.8V50.1C316.2,48.6,315,47.4,313.5,47.4z"/>
<rect x="277.4" y="52.4" class="st12" width="34" height="24.4"/>
<path class="st11" d="M270.4,82.2h48c2.4,0,6.2-2.9,6.2-5.3h-60.3C264.2,79.3,267.9,82.2,270.4,82.2z"/>
<g>
	<g>
		<path class="st1" d="M302.3,58l-9.9,9.9l-6.1-6.1c-0.5-0.5-1.2-0.5-1.7,0c-0.5,0.5-0.5,1.2,0,1.7l7,7c0.2,0.2,0.5,0.4,0.9,0.4
			c0.3,0,0.6-0.1,0.9-0.4L304,59.7c0.5-0.5,0.5-1.2,0-1.7C303.6,57.5,302.8,57.5,302.3,58z"/>
	</g>
</g>
<g>
	<g>
		<path class="st11" d="M298.7,206h-38.4c-1.5,0-2.7,1.2-2.7,2.7v26.8h43.8v-26.8C301.4,207.2,300.2,206,298.7,206z"/>
		<rect x="262.5" y="211.1" class="st12" width="34" height="24.4"/>
		<path class="st11" d="M255.5,240.9h48c2.4,0,6.2-2.9,6.2-5.3h-60.3C249.4,238,253.1,240.9,255.5,240.9z"/>
	</g>
	<g>
		<g>
			<path class="st1" d="M287.5,216.4l-9.9,9.9l-6.1-6.1c-0.5-0.5-1.2-0.5-1.7,0c-0.5,0.5-0.5,1.2,0,1.7l7,7c0.2,0.2,0.5,0.4,0.9,0.4
				s0.6-0.1,0.9-0.4l10.7-10.7c0.5-0.5,0.5-1.2,0-1.7C288.7,215.9,288,215.9,287.5,216.4z"/>
		</g>
	</g>
</g>
<path class="st11" d="M526.4,203.7H488c-1.5,0-2.7,1.2-2.7,2.7v26.8h43.8v-26.8C529.1,204.9,527.9,203.7,526.4,203.7z"/>
<rect x="490.3" y="208.7" class="st12" width="34" height="24.4"/>
<path class="st11" d="M483.3,238.5h48c2.4,0,6.2-2.9,6.2-5.3h-60.3C477.1,235.6,480.8,238.5,483.3,238.5z"/>
<g>
	<g>
		<path class="st1" d="M515.2,214l-9.9,9.9l-6.1-6.1c-0.5-0.5-1.2-0.5-1.7,0c-0.5,0.5-0.5,1.2,0,1.7l7,7c0.2,0.2,0.5,0.4,0.9,0.4
			c0.3,0,0.6-0.1,0.9-0.4l10.7-10.7c0.5-0.5,0.5-1.2,0-1.7C516.5,213.6,515.7,213.6,515.2,214z"/>
	</g>
</g>
<g class="st13">
	<path class="st14" d="M512.1,166.4c-2.5,0-4.4,2-4.4,4.4c0,2.5,2,4.4,4.4,4.4c2.5,0,4.4-2,4.4-4.4
		C516.5,168.4,514.6,166.4,512.1,166.4z"/>
	<path class="st15" d="M527.3,166.4c-2.5,0-4.4,2-4.4,4.4c0,2.5,2,4.4,4.4,4.4c2.5,0,4.4-2,4.4-4.4
		C531.8,168.4,529.8,166.4,527.3,166.4z"/>
	<path class="st1" d="M542.6,166.4c-2.5,0-4.4,2-4.4,4.4c0,2.5,2,4.4,4.4,4.4c2.5,0,4.4-2,4.4-4.4C547,168.4,545,166.4,542.6,166.4z
		"/>
</g>
<g class="st13">
	<path class="st14" d="M512.1,166.4c-2.5,0-4.4,2-4.4,4.4c0,2.5,2,4.4,4.4,4.4c2.5,0,4.4-2,4.4-4.4
		C516.5,168.4,514.6,166.4,512.1,166.4z"/>
	<path class="st15" d="M527.3,166.4c-2.5,0-4.4,2-4.4,4.4c0,2.5,2,4.4,4.4,4.4c2.5,0,4.4-2,4.4-4.4
		C531.8,168.4,529.8,166.4,527.3,166.4z"/>
	<path class="st1" d="M542.6,166.4c-2.5,0-4.4,2-4.4,4.4c0,2.5,2,4.4,4.4,4.4c2.5,0,4.4-2,4.4-4.4C547,168.4,545,166.4,542.6,166.4z
		"/>
</g>
<g>
	<path class="st6" d="M173.5,196.1c-7.4,0-13.3,6-13.3,13.4v15c0,0.9,0.7,1.6,1.6,1.6c0.9,0,1.6-0.7,1.6-1.6v-15
		c0-5.6,4.6-10.2,10.2-10.2c5.6,0,10.2,4.6,10.2,10.2v17.8c0,0.9,0.7,1.6,1.6,1.6c0.9,0,1.6-0.7,1.6-1.6v-17.8
		C186.9,202,180.9,196.1,173.5,196.1z"/>
</g>
<rect x="156.2" y="222.5" class="st12" width="34.6" height="34.6"/>
<path class="st16" d="M177.8,234.4c0-2.4-1.9-4.3-4.3-4.3c-2.4,0-4.3,1.9-4.3,4.3c0,1.5,0.8,2.8,1.9,3.6l-1.8,11.5h8.4l-1.8-11.5
	C177.1,237.2,177.8,235.9,177.8,234.4z"/>
<g>
	<g>
		<g>
			<path class="st6" d="M234.5,93.4c-1.5,0-2.8,1.2-2.8,2.8c0,1.5,1.2,2.8,2.8,2.8c25.9,0,47,21.1,47,47c0,0.8,0.3,1.5,0.8,2
				c0.5,0.5,1.2,0.8,2,0.8c1.5,0,2.8-1.2,2.8-2.8C287.1,117,263.5,93.4,234.5,93.4z"/>
		</g>
		<g>
			<path class="st6" d="M233.2,109.8c-1.5,0-2.8,1.2-2.8,2.8c0,1.5,1.2,2.8,2.8,2.8c17.6,0,32,14.3,32,31.9c0,0.8,0.3,1.5,0.8,2
				c0.5,0.5,1.2,0.8,2,0.8c1.5,0,2.8-1.2,2.8-2.8C270.7,126.6,253.9,109.8,233.2,109.8z"/>
		</g>
		<g>
			<path class="st6" d="M234.5,126.2c-1.5,0-2.8,1.2-2.8,2.8c0,1.5,1.2,2.8,2.8,2.8c7.9,0,14.3,6.4,14.3,14.3c0,0.8,0.3,1.5,0.8,2
				c0.5,0.5,1.2,0.8,2,0.8c1.5,0,2.8-1.2,2.8-2.8C254.3,135,245.5,126.2,234.5,126.2z"/>
		</g>
	</g>
</g>
<g>
	<g>
		<path class="st11" d="M124.5,124.2H2.5c-1.4,0-2.5,1.1-2.5,2.5v64.6c0,1.4,1.1,2.5,2.5,2.5h122c1.4,0,2.5-1.1,2.5-2.5v-64.6
			C127.1,125.3,125.9,124.2,124.5,124.2z"/>
	</g>
</g>
<g>
	<g>
		<g>
			<g>
				<rect x="17.3" y="130.2" class="st4" width="103.7" height="58.5"/>
			</g>
		</g>
		<path class="st4" d="M7.6,148.9c-1.3,0-2.3,1-2.3,2.3v16.6c0,1.3,1,2.3,2.3,2.3c1.3,0,2.3-1,2.3-2.3v-16.6
			C9.9,149.9,8.9,148.9,7.6,148.9z"/>
	</g>
</g>
<rect x="72.6" y="147.8" class="st6" width="79" height="23"/>
<g>
	<g>
		<ellipse class="st9" cx="72.6" cy="159.3" rx="25.8" ry="25.8"/>
		<ellipse class="st10" cx="72.6" cy="159.3" rx="20.1" ry="20.1"/>
	</g>
</g>
<g>
	<g>
		<polygon class="st5" points="186.1,146.7 186.1,173.2 209.1,186.5 232,173.2 232,146.7 209.1,133.4 		"/>
		<path class="st1" d="M232.8,145.4l-23-13.3c-0.5-0.3-1-0.3-1.5,0l-23,13.3c-0.5,0.3-0.7,0.8-0.7,1.3v26.5c0,0.5,0.3,1,0.7,1.3
			l23,13.3c0.2,0.1,0.5,0.2,0.7,0.2s0.5-0.1,0.7-0.2l23-13.3c0.5-0.3,0.7-0.8,0.7-1.3v-26.5C233.5,146.1,233.2,145.6,232.8,145.4z
			 M230.5,172.3l-21.5,12.4l-21.5-12.4v-24.8l21.5-12.4l21.5,12.4V172.3z"/>
	</g>
	<g>
		<path class="st1" d="M214.7,152.7c0-3.1-2.5-5.7-5.7-5.7s-5.7,2.5-5.7,5.7c0,2.6,1.8,4.8,4.2,5.5v13.2c0,0.8,0.6,1.4,1.4,1.4
			c0.8,0,1.4-0.6,1.4-1.4v-0.7h1.4c0.8,0,1.4-0.6,1.4-1.4c0-0.8-0.6-1.4-1.4-1.4h-1.4v-9.6C212.9,157.6,214.7,155.4,214.7,152.7z
			 M209.1,155.6c-1.6,0-2.8-1.3-2.8-2.8c0-1.6,1.3-2.8,2.8-2.8s2.8,1.3,2.8,2.8C211.9,154.3,210.6,155.6,209.1,155.6z"/>
	</g>
</g>
<g>
	<g>
		<path class="st6" d="M547.3,19.8c-11,0-20,9-20,20v89.9c0,10-8.1,18.1-18.1,18.1h-90.9v2h90.9c11.1,0,20.1-9,20.1-20.1V39.8
			c0-9.9,8.1-18,18-18s18,8.1,18,18v21.5h2V39.8C567.3,28.8,558.4,19.8,547.3,19.8z"/>
	</g>
</g>
<polygon class="st11" points="344.8,135.1 344.8,184.8 387.8,209.6 430.8,184.8 430.8,135.1 387.8,110.3 "/>
<path class="st5" d="M431.8,133.4l-43-24.8c-0.6-0.4-1.4-0.4-2,0l-43,24.8c-0.6,0.4-1,1-1,1.7v49.7c0,0.7,0.4,1.4,1,1.7l43,24.8
	c0.3,0.2,0.7,0.3,1,0.3c0.3,0,0.7-0.1,1-0.3l43-24.8c0.6-0.4,1-1,1-1.7v-49.7C432.8,134.4,432.4,133.7,431.8,133.4z M428.8,183.6
	l-41,23.7l-41-23.7v-47.3l41-23.7l41,23.7V183.6z"/>
<g>
	<g>
		<path class="st1" d="M404.7,146.8l-20.9,20.9l-12.9-12.9c-1-1-2.6-1-3.6,0c-1,1-1,2.6,0,3.6l14.7,14.7c0.5,0.5,1.1,0.7,1.8,0.7
			c0.7,0,1.3-0.2,1.8-0.7l22.7-22.7c1-1,1-2.6,0-3.6C407.3,145.8,405.7,145.8,404.7,146.8z"/>
	</g>
</g>
<g>
	<path class="st6" d="M685.3,53.9v-0.2h-3.3v0.2c-12.5,1.6-22.2,12.4-22.2,25.3v164.7c0,12.4-10.1,22.5-22.5,22.5
		c-12.4,0-22.5-10.1-22.5-22.5v-26h-3v26c0,14.1,11.4,25.5,25.5,25.5c14.1,0,25.5-11.4,25.5-25.5V79.2c0-11.8,9.2-21.6,20.8-22.4
		c11.6,0.9,20.8,10.6,20.8,22.4V152h3V79.2C707.4,66.2,697.7,55.5,685.3,53.9z"/>
</g>
<g>
	<g>
		<ellipse class="st9" cx="723.3" cy="158.9" rx="25.4" ry="25.4"/>
		
			<ellipse transform="matrix(1 -1.213844e-03 1.213844e-03 1 -0.1924 0.8781)" class="st10" cx="723.3" cy="158.9" rx="19.8" ry="19.8"/>
	</g>
</g>
<g>
	<g>
		
			<ellipse transform="matrix(1 -1.393052e-03 1.393052e-03 1 -0.2208 0.9192)" class="st9" cx="659.7" cy="158.9" rx="17.1" ry="17.1"/>
		<ellipse class="st10" cx="659.7" cy="158.9" rx="13.3" ry="13.3"/>
	</g>
</g>
<polygon class="st5" points="556.6,144.4 556.6,171 579.5,184.2 602.5,171 602.5,144.4 579.5,131.2 "/>
<path class="st1" d="M603.2,143.1l-23-13.3c-0.5-0.3-1-0.3-1.5,0l-23,13.3c-0.5,0.3-0.7,0.8-0.7,1.3V171c0,0.5,0.3,1,0.7,1.3
	l23,13.3c0.2,0.1,0.5,0.2,0.7,0.2c0.3,0,0.5-0.1,0.7-0.2l23-13.3c0.5-0.3,0.7-0.8,0.7-1.3v-26.5C604,143.9,603.7,143.4,603.2,143.1z
	 M601,170.1l-21.5,12.4l-21.5-12.4v-24.8l21.5-12.4l21.5,12.4V170.1z"/>
<polygon class="st5" points="579.9,183.4 579.9,210 602.8,223.2 625.8,210 625.8,183.4 602.8,170.2 "/>
<path class="st1" d="M626.6,182.1l-23-13.3c-0.5-0.3-1-0.3-1.5,0l-23,13.3c-0.5,0.3-0.7,0.8-0.7,1.3V210c0,0.5,0.3,1,0.7,1.3
	l23,13.3c0.2,0.1,0.5,0.2,0.7,0.2c0.3,0,0.5-0.1,0.7-0.2l23-13.3c0.5-0.3,0.7-0.8,0.7-1.3v-26.5C627.3,182.9,627,182.4,626.6,182.1z
	 M624.3,209.1l-21.5,12.4l-21.5-12.4v-24.8l21.5-12.4l21.5,12.4V209.1z"/>
<polygon class="st17" points="557.9,223.4 557.9,250 580.9,263.2 603.8,250 603.8,223.4 580.9,210.2 "/>
<path class="st1" d="M604.6,222.1l-23-13.3c-0.5-0.3-1-0.3-1.5,0l-23,13.3c-0.5,0.3-0.7,0.8-0.7,1.3V250c0,0.5,0.3,1,0.7,1.3
	l23,13.3c0.2,0.1,0.5,0.2,0.7,0.2c0.3,0,0.5-0.1,0.7-0.2l23-13.3c0.5-0.3,0.7-0.8,0.7-1.3v-26.5C605.3,222.9,605,222.4,604.6,222.1z
	 M602.3,249.1l-21.5,12.4l-21.5-12.4v-24.8l21.5-12.4l21.5,12.4V249.1z"/>
<polygon class="st5" points="580.9,105.4 580.9,132 603.8,145.2 626.8,132 626.8,105.4 603.8,92.2 "/>
<path class="st1" d="M627.6,104.1l-23-13.3c-0.5-0.3-1-0.3-1.5,0l-23,13.3c-0.5,0.3-0.7,0.8-0.7,1.3V132c0,0.5,0.3,1,0.7,1.3
	l23,13.3c0.2,0.1,0.5,0.2,0.7,0.2c0.3,0,0.5-0.1,0.7-0.2l23-13.3c0.5-0.3,0.7-0.8,0.7-1.3v-26.5C628.3,104.9,628,104.4,627.6,104.1z
	 M625.3,131.1l-21.5,12.4l-21.5-12.4v-24.8l21.5-12.4l21.5,12.4V131.1z"/>
<polygon class="st17" points="558.2,66.4 558.2,93 581.2,106.2 604.2,93 604.2,66.4 581.2,53.2 "/>
<path class="st1" d="M604.9,65.1l-23-13.3c-0.5-0.3-1-0.3-1.5,0l-23,13.3c-0.5,0.3-0.7,0.8-0.7,1.3V93c0,0.5,0.3,1,0.7,1.3l23,13.3
	c0.2,0.1,0.5,0.2,0.7,0.2c0.3,0,0.5-0.1,0.7-0.2l23-13.3c0.5-0.3,0.7-0.8,0.7-1.3V66.4C605.7,65.9,605.4,65.4,604.9,65.1z
	 M602.7,92.1l-21.5,12.4l-21.5-12.4V67.3l21.5-12.4l21.5,12.4V92.1z"/>
<g>
	<g>
		<g>
			<path class="st12" d="M671.5,37.5h-50.9c-1.6,0-2.8,1.3-2.8,2.8v43.4c0,1.6,1.3,2.8,2.8,2.8h50.9c1.6,0,2.8-1.3,2.8-2.8V40.3
				C674.3,38.7,673.1,37.5,671.5,37.5z"/>
			<path class="st16" d="M671.6,37.5h-51c-1.5,0-2.7,1.2-2.7,2.7v5.6h56.5v-5.6C674.3,38.7,673.1,37.5,671.6,37.5z"/>
		</g>
		<path class="st1" d="M623.3,40c-1,0-1.8,0.8-1.8,1.9s0.8,1.9,1.8,1.9c1,0,1.8-0.8,1.8-1.9S624.4,40,623.3,40z"/>
		<path class="st1" d="M629.4,40c-1,0-1.8,0.8-1.8,1.9s0.8,1.9,1.8,1.9c1,0,1.8-0.8,1.8-1.9S630.4,40,629.4,40z"/>
	</g>
	<g>
		<path class="st1" d="M653.9,56.7H650l-1.4,5.8h-2.8l1.4-5.8h-3.9l-1.4,5.8h-4.5v3.4h3.6l-0.8,3.5h-4.3V73h3.4l-1.3,5.5h3.9
			l1.3-5.5h2.8l-1.3,5.5h3.9l1.3-5.5h4.8v-3.7h-4l0.8-3.5h4.6v-3.4h-3.8L653.9,56.7z M646.9,69.3h-2.8l0.8-3.5h2.8L646.9,69.3z"/>
	</g>
</g>
<ellipse class="st8" cx="451.4" cy="5" rx="4.5" ry="4.5"/>
<path class="st8" d="M330.8,112c-2.5,0-4.5,2-4.5,4.5s2,4.5,4.5,4.5c2.5,0,4.5-2,4.5-4.5S333.3,112,330.8,112z"/>
<g class="st18">
	<path class="st8" d="M146.1,240.1h-5.7l-1,4.3h4.8v4.5h-5.9l-1.6,6.7h-4.8l1.6-6.7h-3.4l-1.6,6.7h-4.8l1.6-6.7h-4.2v-4.5h5.3l1-4.3
		H123v-4.1h5.5l1.7-7h4.8l-1.8,7h3.4l1.7-7h4.8l-1.8,7h4.6V240.1z M134.7,244.3l1-4.3h-3.4l-1,4.3H134.7z"/>
</g>
<g class="st18">
	<polygon class="st8" points="117.1,37.7 112.2,31.9 107.2,37.7 102.3,43.5 112.2,43.5 122.1,43.5 	"/>
	<polygon class="st8" points="118.6,55.6 123.6,61.5 128.5,55.6 133.5,49.8 123.6,49.8 113.7,49.8 	"/>
</g>
<g class="st18">
	<polygon class="st8" points="638.1,231.2 633.2,225.3 628.2,231.2 623.3,237 633.2,237 643.1,237 	"/>
	<polygon class="st8" points="639.6,249.1 644.6,254.9 649.5,249.1 654.5,243.2 644.6,243.2 634.7,243.2 	"/>
</g>
<path class="st19" d="M735.6,49.1c-1,0-1.9,0.4-2.5,1.1l-11.9-6.5c0.1-0.2,0.1-0.5,0.1-0.8c0,0,0-0.1,0-0.1c0,0,0,0,0-0.1
	c0-0.1,0-0.2-0.1-0.4c0-0.1,0-0.1,0-0.2c0-0.1,0-0.2,0-0.3l11.9-6.5c0.6,0.7,1.5,1.1,2.5,1.1c1.9,0,3.4-1.5,3.4-3.3
	c0-1.8-1.5-3.3-3.4-3.3c-1.9,0-3.4,1.5-3.4,3.3c0,0.3,0,0.6,0.1,0.9l-11.9,6.5c-0.6-0.7-1.5-1.1-2.5-1.1c-1.9,0-3.4,1.5-3.4,3.3
	c0,0,0,0,0,0.1c0,0,0,0,0,0.1c0,1.8,1.5,3.3,3.4,3.3c1,0,1.9-0.4,2.5-1.1l11.9,6.5c-0.1,0.2-0.1,0.5-0.1,0.8c0,0,0,0.1,0,0.1
	c0,0,0,0,0,0.1c0,0.1,0,0.2,0.1,0.4c0,0.1,0,0.1,0,0.2c0,0.1,0,0.2,0,0.3l-11.9,6.5c-0.6-0.7-1.5-1.1-2.5-1.1
	c-1.9,0-3.4,1.5-3.4,3.3c0,1.8,1.5,3.3,3.4,3.3c1.9,0,3.4-1.5,3.4-3.3c0-0.3,0-0.6-0.1-0.9l11.9-6.5c0.6,0.7,1.5,1.1,2.5,1.1
	c1.9,0,3.4-1.5,3.4-3.3c0,0,0,0,0-0.1c0,0,0,0,0-0.1C739,50.5,737.5,49.1,735.6,49.1z"/>
<g class="st18">
	<circle class="st20" cx="323" cy="230.1" r="4.4"/>
	<path class="st21" d="M342.6,230.1c0,2.5-2,4.4-4.4,4.4c-2.5,0-4.4-2-4.4-4.4c0-2.5,2-4.4,4.4-4.4
		C340.7,225.6,342.6,227.6,342.6,230.1z"/>
	<path class="st8" d="M357.9,230.1c0,2.5-2,4.4-4.4,4.4c-2.5,0-4.4-2-4.4-4.4c0-2.5,2-4.4,4.4-4.4
		C355.9,225.6,357.9,227.6,357.9,230.1z"/>
</g>
<g class="st18">
	<circle class="st20" cx="222.4" cy="57.1" r="4.4"/>
	<circle class="st21" cx="237.6" cy="57.1" r="4.4"/>
	<circle class="st8" cx="252.9" cy="57.1" r="4.4"/>
</g>
</svg>
